<svg width="48" height="48" viewBox="0 0 48 48" fill="none" xmlns="http://www.w3.org/2000/svg">
<circle cx="24" cy="24" r="24" fill="#365285"/>
<path d="M31.7331 23.5989C32.0175 23.2445 32.2433 22.9601 32.41 22.7455C33.6109 21.2064 34.1315 20.2232 33.9719 19.7945L33.9093 19.6942C33.8678 19.6339 33.7599 19.5785 33.5865 19.5284C33.4129 19.4783 33.1908 19.4703 32.9202 19.5033L29.9213 19.5237C29.8518 19.5171 29.7824 19.5186 29.7129 19.5284C29.6435 19.5385 29.5985 19.5487 29.5775 19.5585C29.5566 19.5687 29.5393 19.5769 29.5255 19.5835L29.4839 19.6137C29.4492 19.6336 29.4111 19.6689 29.3695 19.7192C29.3278 19.7695 29.2929 19.8278 29.2653 19.895C28.939 20.7046 28.5677 21.4576 28.1511 22.1535C27.8942 22.5685 27.6581 22.9284 27.4431 23.2325C27.2279 23.5373 27.0474 23.7614 26.9016 23.905C26.7559 24.0488 26.6238 24.1645 26.5059 24.2512C26.3878 24.3385 26.2976 24.3751 26.2353 24.3618C26.1727 24.3485 26.1137 24.3352 26.0583 24.3215C25.961 24.2614 25.8828 24.1796 25.824 24.0757C25.7649 23.9722 25.7251 23.8416 25.7042 23.6842C25.6835 23.5271 25.6711 23.3915 25.6678 23.2775C25.6642 23.1638 25.666 23.0034 25.6731 22.7957C25.68 22.5882 25.6835 22.4479 25.6835 22.3741C25.6835 22.1201 25.6888 21.8439 25.6992 21.546C25.7095 21.2484 25.7183 21.0123 25.7251 20.8383C25.732 20.6645 25.7355 20.4803 25.7355 20.2862C25.7355 20.0925 25.7233 19.94 25.6988 19.8294C25.6745 19.7192 25.6379 19.6122 25.5897 19.5082C25.5409 19.4047 25.4698 19.3242 25.376 19.2675C25.2823 19.2106 25.1661 19.1656 25.0273 19.1319C24.6591 19.0514 24.1905 19.0084 23.6215 19.0013C22.3302 18.9885 21.5006 19.0687 21.1327 19.2425C20.9869 19.3163 20.8549 19.4164 20.737 19.5437C20.6119 19.6911 20.5947 19.7715 20.6851 19.7844C21.1017 19.8447 21.3965 19.9887 21.5701 20.2161L21.6326 20.3365C21.6811 20.4238 21.7297 20.5777 21.7784 20.7984C21.8269 21.0192 21.8582 21.2634 21.8722 21.5312C21.9069 22.0196 21.9069 22.4377 21.8722 22.7859C21.8375 23.1341 21.8046 23.405 21.7733 23.5987C21.742 23.7928 21.6952 23.95 21.6328 24.0703C21.5703 24.1911 21.5287 24.2647 21.5078 24.2915C21.4868 24.3181 21.4696 24.3349 21.4558 24.3416C21.3654 24.3749 21.2719 24.3917 21.1746 24.3917C21.0774 24.3917 20.9594 24.3447 20.8205 24.2509C20.6816 24.1577 20.5375 24.0286 20.3885 23.8646C20.239 23.7009 20.0709 23.4715 19.8833 23.1769C19.6959 22.8828 19.5014 22.5345 19.3002 22.1332L19.1337 21.8419C19.0296 21.6548 18.8872 21.382 18.7067 21.024C18.5262 20.6661 18.3664 20.3199 18.2278 19.985C18.1721 19.8447 18.0889 19.7376 17.9779 19.6638L17.9259 19.6337C17.8912 19.6071 17.8355 19.5785 17.7592 19.5485C17.6826 19.5184 17.6031 19.4967 17.5196 19.4832L14.6664 19.5031C14.3749 19.5031 14.1771 19.567 14.073 19.6942L14.0314 19.7542C14.0103 19.7879 14 19.8416 14 19.9149C14 19.9887 14.0209 20.079 14.0626 20.1858C14.4792 21.1296 14.9322 22.0396 15.4214 22.916C15.911 23.7928 16.3361 24.499 16.6971 25.0343C17.0581 25.57 17.4259 26.0749 17.801 26.5501C18.176 27.0253 18.4241 27.3296 18.5455 27.4632C18.6669 27.5973 18.7623 27.6978 18.8318 27.7645L19.092 28.0056C19.2585 28.1661 19.5034 28.3584 19.8262 28.5828C20.149 28.807 20.5064 29.0278 20.8989 29.2451C21.2909 29.4627 21.7475 29.6398 22.2681 29.7772C22.7886 29.9146 23.2954 29.9698 23.7883 29.9428H24.9859C25.2289 29.9228 25.4128 29.8495 25.5377 29.722L25.5793 29.6719C25.6069 29.632 25.6331 29.57 25.6574 29.4864C25.6816 29.4028 25.6941 29.3106 25.6941 29.2104C25.6869 28.9228 25.7097 28.663 25.7616 28.4325C25.8136 28.2015 25.8727 28.0277 25.9387 27.9103C26.0047 27.7935 26.0792 27.6946 26.1626 27.6142C26.2459 27.5337 26.3047 27.4856 26.3397 27.4687C26.3744 27.4523 26.4023 27.4406 26.423 27.4335C26.5894 27.38 26.7855 27.4319 27.0113 27.5891C27.2369 27.7467 27.4487 27.9404 27.6466 28.1713C27.8443 28.4023 28.0821 28.6614 28.3598 28.9493C28.6374 29.237 28.8804 29.4511 29.0887 29.5916L29.297 29.7124C29.4359 29.7924 29.6162 29.866 29.8385 29.9332C30.0606 29.9999 30.2552 30.0168 30.4216 29.9833L33.0874 29.9429C33.3511 29.9429 33.556 29.9013 33.7018 29.8175C33.8475 29.7344 33.9343 29.6417 33.9621 29.5416C33.9897 29.4412 33.9915 29.3279 33.9674 29.2004C33.943 29.0734 33.9187 28.9848 33.8945 28.9347C33.8702 28.8846 33.8476 28.8425 33.8267 28.8092C33.4795 28.207 32.8166 27.4674 31.8378 26.5908L31.8168 26.5708L31.8065 26.5607L31.7962 26.5509H31.7857C31.3413 26.1426 31.0603 25.8682 30.9423 25.7275C30.7271 25.4602 30.6784 25.1891 30.7966 24.9147C30.8793 24.7067 31.1916 24.2683 31.7331 23.5989Z" fill="white"/>
</svg>
