<svg width="48" height="48" viewBox="0 0 48 48" fill="none" xmlns="http://www.w3.org/2000/svg">
<circle cx="24" cy="24" r="24" fill="#365285"/>
<path d="M32.6291 28.8093C32.4217 29.666 31.8137 30.3412 31.0427 30.5719C29.6341 31 23.9998 31 23.9998 31C23.9998 31 18.3657 31 16.9571 30.5881C16.2009 30.3577 15.5781 29.6658 15.3707 28.8093C15 27.2447 15 24 15 24C15 24 15 20.7389 15.3707 19.1907C15.5783 18.3342 16.1861 17.6589 16.9572 17.4282C18.3805 17 24 17 24 17C24 17 29.6341 17 31.0427 17.4119C31.8138 17.6424 32.4217 18.3177 32.6294 19.1742C32.9999 20.7389 32.9999 23.9835 32.9999 23.9835C32.9999 23.9835 33.0148 27.2447 32.6291 28.8093V28.8093ZM22.2059 21.0024V26.9976L26.8912 24L22.2059 21.0024Z" fill="white"/>
</svg>
